<?xml version="1.0" encoding="UTF-8"?>
<svg version="1.1" viewBox="0 0 2048 1146" width="300" height="168" xmlns="http://www.w3.org/2000/svg">
<path transform="translate(0)" d="m0 0h2048v1146h-2048z" fill="#FFFFFE"/>
<path transform="translate(613,555)" d="m0 0h15l12 2 10 5 10 9 7 9 5 13 2 12-1 15-5 13-6 8-8 8-11 6-16 3h-9l-14-2-9-3-11-7-8-9-6-13-2-11v-12l3-14 7-14 8-8 10-6 10-3z" fill="#031178"/>
<path transform="translate(1967,541)" d="m0 0 4 1 10 5 15 8v3l-41 20-25 14-20 12-19 12-12 8-20 14-13 10-10 7-14 11-5 3-7-4-20-16-1-5 10-8 16-12 11-8 13-9 26-17 22-13 27-14 16-8 27-11z" fill="#B90F44"/>
<path transform="translate(960,557)" d="m0 0h20l7 2 16 35 6 13 1 2 3-5 16-34 6-11 5-2h24l1 3 1 49v32l-1 14h-22l-1-61-3 3-11 23-14 30-4 1-5-8-10-19-11-23-4-6v-2h-2l1 25-1 37h-19l-2-1v-96z" fill="#031279"/>
<path transform="translate(54,560)" d="m0 0h48l11 4 8 7 4 8 1 9-3 8-9 8 1 4 11 10 3 7v10l-5 10-7 7-6 3-11 2h-45l-2-2v-79z" fill="#031279"/>
<path transform="translate(292,557)" d="m0 0h16l5 2 10 15 12 20 8 12 10 14 1-61 4-2h9l10 1v94l-1 3-3 1h-13l-9-2-8-11-17-26-12-18-4-4v36l-1 24h-23v-96z" fill="#031279"/>
<path transform="translate(1218,560)" d="m0 0h48l12 4 8 7 5 10 1 5-1 13-3 6-7 7-6 3h-2l4 10 9 15 8 14 1 3h-14l-12-1-6-9-9-17-5-9-5-1-1 33-1 5h-23l-1-1z" fill="#031178"/>
<path transform="translate(1906,514)" d="m0 0h11l20 11-1 2-34 13-36 17-22 12-18 11-17 11-19 13-10 7-21 14-5-2-15-10-5-3 1-4 9-7h2v-2l17-12 19-13 22-13 22-12 16-8 22-10 26-10z" fill="#B90F44"/>
<path transform="translate(193,557)" d="m0 0h22l4 6 18 50 16 42v2h-15l-11-1-5-17-3-2h-32l-5 12-4 6-6 2-16-1 1-6 21-56 14-36z" fill="#031279"/>
<path transform="translate(425,558)" d="m0 0h23l1 8v36l4-4 14-23 12-16 3-1h20l3 1-2 5-10 13-10 16-8 11v5l16 23 8 12 7 10 1 4h-26l-3-3-7-11-13-21-7-11-1-1-1 31-1 15h-19l-6-2v-96z" fill="#031279"/>
<path transform="translate(862,557)" d="m0 0h21l4 5 11 31 15 39 8 20v3l-9 1-17-1-5-18-9-1-27-1-3 10-4 9-3 1h-20l3-10 13-35 11-29 8-20z" fill="#031279"/>
<path transform="translate(1539,557)" d="m0 0h21l4 5 13 35 10 27 11 28v3h-22l-4-2-5-16-1-1h-14l-20-1-3 10-4 8-3 2h-21l1-5 17-44 16-42 3-6z" fill="#031279"/>
<path transform="translate(1116,558)" d="m0 0h54l8 1-2 10-1 7-2 2h-38v19l34 1v16l-1 1h-34v23h42l2 2 1 16-5 1h-62l-1-1v-97z" fill="#031279"/>
<path transform="translate(1435,553)" d="m0 0h18l13 4 6 4 2 6v9l-2 6-16-6-11-1-10 3-9 6-6 7-3 8v13l3 10 4 6 7 6 7 3 5 1h14l14-6 3 1 1 2v10l-3 6-8 4-12 2h-12l-16-3-13-7-10-10-8-16-2-12 1-15 4-12 7-11 7-7 10-6 10-4z" fill="#031178"/>
<path transform="translate(716,558)" d="m0 0h53l2 1-1 10-3 7-1 1-7 1h-28l1 21h16l15 1-1 15-2 4h-29v33l-2 4-2 1h-19l-2-1-1-10-1-86 1-1z" fill="#031279"/>
<path transform="translate(618,574)" d="m0 0 9 1 8 4 7 8 3 6 1 5v15l-2 9-4 6-8 7-9 4-11-1-10-5-6-8-3-8v-19l4-10 6-7 10-6z" fill="#FFFFFE"/>
<path transform="translate(1331,559)" d="m0 0h24l1 6v89l-1 3h-21l-3-1z" fill="#031279"/>
<path transform="translate(1765,530)" d="m0 0 11 2 10 4 2 2v3l-23 13-9 6-16 10-19 13-10 7-4 2-5-1-13-7-5-6 38-25 26-15 14-7z" fill="#031279"/>
<path transform="translate(1721,513)" d="m0 0 8 1 12 5v3l-23 11-17 10-23 14-15 9h-9l-13-7v-3l18-10 22-13 24-13z" fill="#031279"/>
<path transform="translate(1767,494)" d="m0 0h11l33 10 24 8 7 2v2l-22 10h-7l-24-10-37-12-4-3 12-5z" fill="#B70F45"/>
<path transform="translate(1811,477)" d="m0 0 11 1 27 8 21 7 12 5 6 4-2 2-16 2h-8l-27-10-33-11-4-3 5-3z" fill="#B40F46"/>
<path transform="translate(81,614)" d="m0 0h14l7 3 1 2v15l-4 3-3 1h-17l-2-2v-20z" fill="#FFFFFE"/>
<path transform="translate(1247,576)" d="m0 0h7l9 3 3 4 1 10-3 5-9 4-10 1-3-1-1-3v-19l2-3z" fill="#FFFFFE"/>
<path transform="translate(77,577)" d="m0 0h18l5 3 1 2v14l-5 3h-18l-1-1z" fill="#FFFFFE"/>
<path transform="translate(871,585)" d="m0 0 4 4 5 13 4 13v2h-24l9-30z" fill="#FFFFFE"/>
<path transform="translate(203,584)" d="m0 0 4 4 4 11 5 18h-23l1-7 8-25z" fill="#FFFFFE"/>
<path transform="translate(1549,584)" d="m0 0 4 4 7 22 1 7h-22l-1-4 7-18z" fill="#FFFFFE"/>
</svg>
