<?xml version="1.0" encoding="UTF-8"?>
<svg version="1.1" viewBox="0 0 900 900" width="225" height="225" xmlns="http://www.w3.org/2000/svg">
<path transform="translate(0)" d="m0 0h900v900h-900z" fill="#FDFDFD"/>
<path transform="translate(290,123)" d="m0 0h13v4l-8 16-3 9v9l2 3h7l22-5h25l22 5h6l3-5-1-9-5-13-6-11v-3h16l20 4 12 5 10 9 4 5 4 8 3 12v14l-2 11-7 14-2 2 1 4 6 10 4 11-4 1-18 1 3 7 10 18 10 17 13 19 12 16 12 13 10 9 16 11 19 10 22 8 17 4 18 2h19l17-3 14-7 6-7 4-8 2-8-1-11-6-12-7-8-10-7-14-8-21-8-32-8-30-7-15-6-10-6-8-6-7-7-8-13-4-13v-15l4-13 7-9 8-7 14-7 8-2 9-1 80-1h32l50 1-5 10-9 14-8 10-11 11-15 10-11 4-5 1h-16l-13-4-10-6-13-11-5-5-10-9-7-3-11-1-19 2-11 4-7 6-4 7v13l6 12 7 7 11 7 13 5 25 6 29 7 21 7 16 7 16 10 13 11 7 10 6 13 3 10v12l-5 16-5 10-9 10-13 8-14 5-6 1 2 5 7 10 14 25 9 14 4 5 14 11 11 7-3 9-12 40-7 34-1 7-1 19h-78l10-24 6-16 4-17-14 7-8 2h-12l-10-2-12 25-10 19-5 6h-69l8-14 9-14 11-23 6-20-10 1h-9l-1-14-6-1h-8v14l-3 31-10 2-24 2h-18l-12-2-12-5-9-5-15-13-14-12-8-7-9-7-1 21-6 53-2 13h-64l1-8 4-18 2-21v-11l-2-22-7-34-1-7v-21l4-12-2-5-9-16-5-13-3-14v-21l4-21 14-47 8-25 6-19 1-5h-10l-8-2 1-9 5-9h2l1-8-6-9-5-13-1-4v-13l5-16 6-10 8-7 14-7 15-3z" fill="#022070"/>
<path transform="translate(272,145)" d="m0 0h3v23l3 8 5 5 9 4 11-1 22-4h21l27 5 9-1 8-5 4-5 2-7v-12l-1-10 7 3 5 4 6 9 2 6v12l-3 9-6 9-6 5-10 3-18 1-10 3-4 3h-2l-2 4-4 9-1 3v16l3 15v7l-1 2h-41l6 12h38l4 1 6-9 1-2v-8l-1-7 13-18 7-10 4 3 8 17 7 12 10 21 5 15 4 21v17l-3 15-2 7 8 7 6 5h2l4-9 6-25 1-8h3l6 8 12 12 16 12 19 11 20 9 17 6 14 3 16 3 10 4 10 7 8 8 10 16 9 17 10 15 12 12 7 6-1 7-8 27-9 42-2 3h-22l-1-3 5-18 3-15v-14l-5-13-6-7-15-8-21-6-28-6-10-4-8-6-5-6-3-7-1-5v-13l1-7 2-3-22 1-1 8v12l1 11 6 14 7 9 7 6 4 4-4 2-26 1-1-1v-14l-20 2-15 1h-19l-1-3 3-15v-6l-20-1-1 11-4 17-5 12-6 9h34v12l-1 10-6 2h-31l-10-3-11-8-7-9-3-6-2-11v-8l3-14 6-14 3-5-2-4-10-9-3-1-6 9-6 14-4 15-1 12h-3l-8-7-14-13-11-9-12-12-8-7-16-15-8-10-8-15-4-15v-21l5-21 14-46 18-55 6-17-14-7-9-9-7-14-1-4v-9l5-12 7-8z" fill="#FEFEFE"/>
<path transform="translate(196,645)" d="m0 0h19l14 30 3 6 2-3 11-22 4-10 1-1h19l1 15v53l-4 1-11-1v-43l-4 4-10 21-8 16-4-4-13-27-5-10-2-1 1 18v26l-2 1-13-1v-67z" fill="#022070"/>
<path transform="translate(379,645)" d="m0 0h33l9 3 6 8 2 6v8l-3 7-8 7h-2l3 7 11 19 1 4-16-1-4-5-10-18-2-3h-4l-1 26-4 1-12-1v-67z" fill="#022070"/>
<path transform="translate(459,645)" d="m0 0h33l8 3 5 5 4 10-1 9-3 6-6 5-3 2 2 5 11 19 2 5-17-1-5-8-10-17-5-2v27l-4 1-12-1v-67z" fill="#022070"/>
<path transform="translate(257,437)" d="m0 0 4 1 14 12 7 7 8 7 2 4-1 36-5 46-3 3h-15l-1-1v-48l-4-27-5-23z" fill="#FEFEFE"/>
<path transform="translate(304,645)" d="m0 0h45l-1 10-1 2h-28v13l1 1 22 1 1 2v9l-1 1-7 1h-16v16h30v13h-42l-4-1v-67z" fill="#022070"/>
<path transform="translate(659,645)" d="m0 0h16l1 55 28 1v12l-1 1h-26l-19-1v-67z" fill="#022070"/>
<path transform="translate(589,645)" d="m0 0h14l1 54 3 1h24l2 2v12h-22l-23-1v-67z" fill="#022070"/>
<path transform="translate(538,645)" d="m0 0h16v69l-17-1v-67z" fill="#032170"/>
<path transform="translate(507,499)" d="m0 0h9l9 9v5l-5 10-11 23-4 6-2 1h-16l-2-2 8-16 10-28 3-7z" fill="#FEFEFE"/>
<path transform="translate(579,181)" d="m0 0h57l-1 5-14 10-7 3-5 1h-10l-10-4-11-9-3-3v-2z" fill="#FEFEFE"/>
<path transform="translate(635,744)" d="m0 0h8l6 4 4 5 1 4v7l-3 6-6 5-9 1-8-3-4-5-2-5 1-9 5-7z" fill="#000A75"/>
<path transform="translate(274,744)" d="m0 0h8l6 4 4 5 1 2v11l-7 8-10 2-8-3-5-6-1-2v-10l4-7z" fill="#000976"/>
<path transform="translate(108,745)" d="m0 0h13l5 2 2 3v6l-1 3 2 9-2 5-5 2h-12l-3-2-1-5v-13l1-9z" fill="#000976"/>
<path transform="translate(666,745)" d="m0 0 6 1 4 5 4 8h2l6-11 3-3 5 1 1 1 1 26-2 2-4-1-1-18-5 8-3 8h-3l-7-13-2-3-1 1v18l-5-1-1-1v-27z" fill="#021F70"/>
<path transform="translate(379,745)" d="m0 0 7 1 5 8 3 6 3-3 6-10 2-2h5l1 1v28l-4 1-2-1v-18l-5 8-4 8h-3l-4-10-4-6-1 18-4 1-2-7v-15z" fill="#000A75"/>
<path transform="translate(458,745)" d="m0 0h12l7 3 2 3v7l-4 4 1 6 3 5v2l-6-1-7-9-3-1v10l-5 1-1-1-1-19 1-9z" fill="#022070"/>
<path transform="translate(178,745)" d="m0 0 5 1 7 8 7 10 1-18 5-1 1 2v27l-5 1-6-5-7-11-1-3h-2v18l-5 1-1-1v-25z" fill="#000B75"/>
<path transform="translate(778,745)" d="m0 0 5 1 8 10 6 8 1-18 5-1 1 2v27l-5 1-7-6-7-11-2-2v18l-5 1-1-1v-25z" fill="#021C71"/>
<path transform="translate(536,485)" d="m0 0 12 2 26 6 1 1v5l-4 3-6 2h-12l-8-4-5-5-4-5z" fill="#FEFEFE"/>
<path transform="translate(351,745)" d="m0 0 5 1 3 5 5 14 2 5v5l-5-1-4-5h-7l-3 1-2 4-6 1 1-6 9-23z" fill="#000C75"/>
<path transform="translate(70,745)" d="m0 0 5 1 3 4 8 22v3l-5-1-4-5-10 1-5 5h-3l1-8 7-19z" fill="#022070"/>
<path transform="translate(556,744)" d="m0 0 3 1 7 14 4 12v4l-5-1-4-5h-11l-2 5-4 1-1-4 7-19 4-7z" fill="#000976"/>
<path transform="translate(712,745)" d="m0 0h13l5 2 2 4v7l-3 5-9 2h-4l1 9-5 1-1-1v-28z" fill="#000C75"/>
<path transform="translate(750,745)" d="m0 0 5 1 5 10 5 15v4l-5-1-3-5h-10l-3 5-5 1-1-3 7-19 3-6z" fill="#010D75"/>
<path transform="translate(151,745)" d="m0 0 5 1 6 15 4 12v2l-6-1-3-5h-11l-2 5-4 1-1-5 4-11 5-11z" fill="#000C75"/>
<path transform="translate(217,745)" d="m0 0h5l1 1 1 10 1 2 9-12 7-1-2 5-6 9 2 5 6 9v2l-7-1-9-12-1 6-1 7h-5l-1-1z" fill="#021E70"/>
<path transform="translate(602,744)" d="m0 0h8l5 4 1 4-13-1-5 4-1 7 4 7 2 1h8l5-2-1 5-5 3h-7l-7-3-5-5-1-2v-11l4-7z" fill="#000A76"/>
<path transform="translate(523,744)" d="m0 0 7 1 5 5-1 2-5-1h-7l-5 4v10l5 5h8l4-1-1 5-4 2h-7l-9-4-4-7v-9l3-6 5-4z" fill="#000A76"/>
<path transform="translate(427,745)" d="m0 0h17v5h-12l1 7h9l1 5h-10v8l12 1-1 4h-16l-2-1v-28z" fill="#000677"/>
<path transform="translate(474,657)" d="m0 0h12l5 3 1 1v10l-5 4h-13l-1-3v-14z" fill="#FEFEFE"/>
<path transform="translate(634,750)" d="m0 0h8l5 5v11l-6 5-7-1-4-4-1-3v-7z" fill="#FEFEFE"/>
<path transform="translate(276,749)" d="m0 0 7 2 3 3 1 9-3 5-4 3-7-1-4-6v-10l5-4z" fill="#FEFEFE"/>
<path transform="translate(394,657)" d="m0 0h12l6 4 1 1v7l-4 5-2 1h-13z" fill="#FEFEFE"/>
<path transform="translate(815,744)" d="m0 0 7 3 4 8 3-1 5-8 6-1-1 6-7 10-2 13-4 1-2-3-2-11-8-14z" fill="#000C75"/>
<path transform="translate(304,745)" d="m0 0h18l-1 5h-9l-2 1v7l11 1-1 4-10 1-1 10-4 1-2-2v-27z" fill="#000A75"/>
<path transform="translate(108,745)" d="m0 0h13l5 2 2 3v6l-1 5h-2l-5-10-1-1h-7l1 24h-5l-2-6v-13l1-9z" fill="#000876"/>
<path transform="translate(298,215)" d="m0 0 9 1 5 4 6 10v5l-1 1-7-1-6-4-5-6z" fill="#021C71"/>
<path transform="translate(371,216)" d="m0 0h5l2 2-1 4-4 7-5 5-5 2-5-1v-6l4-8 6-4z" fill="#FEFEFE"/>
<path transform="translate(691,745)" d="m0 0 5 1 1 1 1 26-2 2-4-1-1-18-5 8-5 1-1-3h2l1-5 5-9z" fill="#000876"/>
<path transform="translate(330,285)" d="m0 0h16l8 4v3l-2 2h-30l-2-5 5-3z" fill="#021E70"/>
<path transform="translate(799,745)" d="m0 0h4l1 2v27l-5 1-7-6-1-5 2 1 1-2 3 1 1-18z" fill="#000B75"/>
<path transform="translate(745,758)" d="m0 0 1 2h2v4h8l1-4h3v2h2l3 9v4l-5-1-3-5h-10l-3 5-5 1-1-3 5-12z" fill="#000976"/>
<path transform="translate(351,745)" d="m0 0 5 1 3 5 3 9-3 1-1 3h-9l1-10-4 1 3-9z" fill="#000A75"/>
<path transform="translate(712,745)" d="m0 0 11 1-2 2h-4v11h2v4l2 1-5 1 1 9-5 1-1-1v-28z" fill="#000776"/>
<path transform="translate(151,745)" d="m0 0 5 1 3 7v3h-2v-3h-7v3l-4 2v6l7 1-3 3h-4l-1 5-2 2-4-1 1-6 7-19z" fill="#000876"/>
<path transform="translate(492,745)" d="m0 0h5l1 3v26l-1 1h-5l-1-2v-27z" fill="#000A76"/>
<path transform="translate(471,747)" d="m0 0h5l3 4v7l-4 4 1 6 3 5v2l-6-1-2-4h2l-1-5h-3l1-7h2v-9z" fill="#000A76"/>
<path transform="translate(498,702)" d="m0 0 8 2 5 8v2l-13-1-4-5 2-5z" fill="#000976"/>
<path transform="translate(674,750)" d="m0 0 2 1 4 8 2 1-1 5 4-1-1 7-3 2-3-4-7-14z" fill="#022070"/>
<path transform="translate(410,746)" d="m0 0h1v28l-4 1-2-1v-18-3l2-1 1 5h1z" fill="#021B71"/>
<path transform="translate(782,746)" d="m0 0 5 5 8 11-2 4h-3l-6-9-3-1v-7z" fill="#021F70"/>
<path transform="translate(177,749)" d="m0 0h1l1 5 3 3 1 15-1 3-5-1z" fill="#021E70"/>
<path transform="translate(76,760)" d="m0 0h5l4 9 1 6-5-1-4-5v-2l-4-1z" fill="#000A76"/>
<path transform="translate(70,745)" d="m0 0 5 1 3 4 1 6-3-1-1-3-5 1-2 4-4 3 1-7 3-6z" fill="#000976"/>
<path transform="translate(426,751)" d="m0 0 2 4v15l-1 2 5 1 1-3 12 1-1 4h-16l-2-1z" fill="#021F70"/>
<path transform="translate(108,745)" d="m0 0h13l5 2 2 3v6l-1 5h-2l-5-10-6-2 4-1v-2h-10z" fill="#010D75"/>
<path transform="translate(564,760)" d="m0 0 3 2 3 9v4l-5-1-4-5-4-2h2l2-6z" fill="#000976"/>
<path transform="translate(696,747)" d="m0 0h1l1 26-2 2-4-1-1-18-1-2h2l1-2 1 8 1-2z" fill="#022070"/>
<path transform="translate(416,699)" d="m0 0 4 2 2 6 1 5h-6l-5-6-1-5z" fill="#000378"/>
<path transform="translate(358,760)" d="m0 0 5 1 3 9v5l-5-1-6-8 1-2h2z" fill="#000976"/>
<path transform="translate(114,761)" d="m0 0 8 1 1 1v5l-3 3h-6l-2-5z" fill="#FEFEFE"/>
<path transform="translate(717,749)" d="m0 0 7 1 2 2v5l-2 2-5 1-3-3z" fill="#FEFEFE"/>
<path transform="translate(464,749)" d="m0 0 6 1 3 4-1 4-2 1h-6l-1-1v-8z" fill="#FEFEFE"/>
<path transform="translate(178,745)" d="m0 0 5 1 3 3-1 7-3 1-2 4-2-3z" fill="#000776"/>
<path transform="translate(459,759)" d="m0 0 4 1 2 1v2l-2 1v10l-5 1-1-1v-7l1-7zm1 1-1 4 2-1z" fill="#021772"/>
<path transform="translate(231,762)" d="m0 0h3l7 11v2l-7-1-4-6-1-5z" fill="#000A76"/>
<path transform="translate(114,749)" d="m0 0h5l3 3-1 5-7 2-1-1v-8z" fill="#FEFEFE"/>
<path transform="translate(666,745)" d="m0 0 6 1 2 2-1 4-2 3v-2l-4 2-2 4v-12z" fill="#000677"/>
<path transform="translate(547,764)" d="m0 0 9 1-2 3h-4l-1 5-2 2-4-1 1-5z" fill="#000876"/>
<path transform="translate(236,745)" d="m0 0h5l-2 5-5 7h-2l2-7-6 9-1-3 7-10z" fill="#000C75"/>
<path transform="translate(234,749)" d="m0 0 1 3-2 5v5l-3 2v3l-5-5v-3h3l2-5z" fill="#021E70"/>
<path transform="translate(304,745)" d="m0 0h18l-1 5h-9l-3 1 1-5h-6z" fill="#032170"/>
<path transform="translate(352,754)" d="m0 0h3l2 5-1 5h-7l1-7z" fill="#FEFEFE"/>
<path transform="translate(427,745)" d="m0 0h17v5h-12v-3l-5-1z" fill="#032170"/>
<path transform="translate(471,747)" d="m0 0h5l3 4v7l-5-1-2 1v-9zm-1 11 2 1-2 1z" fill="#010F74"/>
<path transform="translate(556,753)" d="m0 0 3 2 1 9h-7l-1-3z" fill="#FEFEFE"/>
<path transform="translate(186,750)" d="m0 0 4 4 3 6-2 6-6-8-1-5h2z" fill="#022070"/>
<path transform="translate(71,754)" d="m0 0 4 1 1 8-1 1h-6l-1-3z" fill="#FEFEFE"/>
<path transform="translate(67,764)" d="m0 0 5 1-2 3h-3l-2 4-3 3h-3l1-8 3-1 1 2z" fill="#000976"/>
<path transform="translate(751,753)" d="m0 0 3 2 2 9h-7v-8z" fill="#FEFEFE"/>
<path transform="translate(551,757)" d="m0 0h3l-1 6 7 1-1 3-4 2h-5l3-3-1-1h-6v-2h2l2-5z" fill="#032170"/>
<path transform="translate(389,752)" d="m0 0 6 8 1 2h-3l-1 4-4-5-2-6 3-1z" fill="#022070"/>
<path transform="translate(218,746)" d="m0 0h5v12h-3v-5l-1 7h-1z" fill="#000876"/>
<path transform="translate(151,754)" d="m0 0 3 1 2 5v4h-6l-1-1 1-8z" fill="#FEFEFE"/>
<path transform="translate(408,764)" d="m0 0 3 2v8l-4 1-2-1v-8z" fill="#032170"/>
<path transform="translate(329,673)" d="m0 0h14l-1 9-4-1h2v-2h-2l-3-3-6-2z" fill="#000577"/>
<path transform="translate(309,758)" d="m0 0 12 1-1 4-11 1z" fill="#032170"/>
<path transform="translate(432,757)" d="m0 0h10l1 5h-11z" fill="#032170"/>
<path transform="translate(112,750)" d="m0 0h1l1 8 7-1 1 5h-8l-2 4z" fill="#032170"/>
<path transform="translate(150,753)" d="m0 0h7v3l3-1 1 6h-5l-3-6h-3z" fill="#021E70"/>
<path transform="translate(458,745)" d="m0 0h12l4 2-2 1 2 2h-2l-1 2-7-3v-2l-6-1z" fill="#032170"/>
<path transform="translate(113,770)" d="m0 0 12 3-3 2h-12z" fill="#032170"/>
<path transform="translate(562,752)" d="m0 0 2 2 2 7h-5l-1 3-1-9 3-1z" fill="#032170"/>
<path transform="translate(358,751)" d="m0 0 2 2 2 7-3 1-1 3-2-1-1-9h2z" fill="#032170"/>
<path transform="translate(379,763)" d="m0 0 4 3v9l-4-1z" fill="#000676"/>
<path transform="translate(615,768)" d="m0 0 1 3-3 4-7-1-2-3 9-2z" fill="#011572"/>
<path transform="translate(824,766)" d="m0 0 2 2 4-1v7l-4 1-2-3z" fill="#032170"/>
<path transform="translate(457,746)" d="m0 0h10l-3 1v3h-3l-1 2h-3z" fill="#000677"/>
<path transform="translate(147,756)" d="m0 0h3v7l6 1-1 2-9-2-1-6z" fill="#032170"/>
<path transform="translate(778,745)" d="m0 0 4 1 1 3h-2l1 4-2 4-2-1z" fill="#000776"/>
<path transform="translate(298,215)" d="m0 0 8 1-4 2v3l-2 1-1 3z" fill="#032170"/>
<path transform="translate(756,753)" d="m0 0 2 3h2l1 6-6-1-1-6z" fill="#022070"/>
<path transform="translate(533,769)" d="m0 0 1 4-4 2-7-3v-1z" fill="#021D71"/>
<path transform="translate(347,754)" d="m0 0h3v6h-2l-2 2-2-1 1-5z" fill="#011274"/>
<path transform="translate(398,764)" d="m0 0 1 2-3 6h-3l-1-5 4-1z" fill="#032170"/>
<path transform="translate(108,745)" d="m0 0h13l3 2-5 2h-5l4-1v-2h-10z" fill="#032170"/>
<path transform="translate(716,745)" d="m0 0h9l1 5-2 1-7-2 4-2-5-1z" fill="#021E70"/>
</svg>
